<svg width="34" height="34" viewBox="0 0 34 34" fill="none" xmlns="http://www.w3.org/2000/svg">
<g clip-path="url(#clip0_210_3)">
<path d="M14.7704 25.5314C14.3944 25.4791 14.013 25.4505 13.6438 25.371C11.553 24.9203 9.92128 23.2057 9.66042 21.2033C9.31242 18.5315 11.229 16.1233 14.0556 15.6809C14.6173 15.593 15.3521 15.5952 15.7104 15.6879C15.7104 16.5545 15.7104 17.4236 15.7104 18.3088C15.5695 18.2834 15.4373 18.254 15.3033 18.2359C13.7241 18.0242 12.3676 19.1689 12.4193 20.6679C12.4601 21.8517 13.4701 22.8278 14.7567 22.9276C15.9841 23.0228 17.1587 22.1805 17.3838 21.0342C17.4227 20.8357 17.4341 20.6302 17.4344 20.4279C17.4393 16.8666 17.4404 13.3053 17.443 9.74398C17.443 9.66603 17.4507 9.58808 17.455 9.51041C18.3721 9.51041 19.2893 9.51041 20.2061 9.51041C20.2664 11.7285 22.0155 13.4253 24.3458 13.5186C24.489 13.5243 24.5044 13.578 24.5038 13.6883C24.5004 14.4443 24.5021 15.2006 24.5021 15.9566C24.5021 16.0073 24.5021 16.0577 24.5021 16.1238C22.9055 16.1173 21.4952 15.6548 20.2093 14.7553C20.2093 14.8394 20.209 14.8942 20.2093 14.9489C20.215 16.7792 20.2224 18.6095 20.2241 20.4398C20.2244 20.6944 20.2081 20.9509 20.1758 21.2036C19.9155 23.2542 18.1998 25.0012 16.0493 25.4033C15.7367 25.4618 15.4175 25.4894 15.1016 25.5312C14.9913 25.5314 14.8807 25.5314 14.7704 25.5314Z" fill="white"/>
</g>
<circle cx="17" cy="17" r="15.5" stroke="white" stroke-width="3"/>
<defs>
<clipPath id="clip0_210_3">
<rect width="15.1111" height="16.0556" fill="white" transform="translate(9.44444 9.44446)"/>
</clipPath>
</defs>
</svg>
