<svg width="96" height="96" viewBox="0 0 96 96" fill="none" xmlns="http://www.w3.org/2000/svg">
<rect width="96" height="96" rx="48" fill="#FFF491"/>
<path d="M67.482 26.8174C67.58 27.0473 67.6785 27.2779 67.775 27.5089C69.1633 30.8188 68.3407 33.7342 66.0215 36.2953C65.1493 37.2578 64.0361 37.9979 63.073 38.8834C62.5423 39.3712 62.0422 39.9124 61.6242 40.4973C61.0744 41.2663 61.0771 42.1455 61.613 42.8977C62.5153 44.1626 63.4274 45.4343 64.4706 46.5807C68.975 51.5329 69.485 57.1826 67.3149 63.2598C66.0016 66.9385 63.6435 69.8871 60.4089 72.1006C57.6681 73.9752 54.6059 75.0418 51.3315 75.443C46.769 76.0022 42.2734 75.6444 37.9616 74.0477C33.8372 72.5206 30.2819 70.1175 27.4209 66.7357C23.9092 62.5852 21.9294 57.7962 21.4151 52.3949C20.657 44.4273 22.688 37.2445 27.8284 31.03C31.9431 26.0557 37.2769 22.966 43.4888 21.3505C47.5136 20.3054 51.5856 19.998 55.7028 20.5945C57.7215 20.8869 59.7097 21.3258 61.582 22.1442C63.4335 22.9533 65.1328 24.0066 66.5241 25.4987C66.8436 25.9385 67.1631 26.3783 67.482 26.8174ZM29.3936 62.9861C32.7126 67.3719 36.3913 69.6808 41.5036 71.0517C45.3046 72.0709 49.1999 72.1801 53.0457 71.1604C59.2207 69.5217 63.142 65.6237 64.4045 59.3142C65.1323 55.676 64.4216 52.3365 61.855 49.5C60.752 48.2809 59.7155 46.9891 58.7662 45.6468C57.6937 44.13 57.1052 42.4314 57.5001 40.5206C57.8582 38.7877 58.8955 37.4635 60.1615 36.3044C61.1405 35.4085 62.2628 34.6537 63.1587 33.6868C64.9846 31.7165 65.195 29.4213 62.9093 27.4141C61.4976 26.174 59.7624 25.5572 58.0186 25.0267C55.6597 24.3095 53.2055 24.0999 50.7408 24.1721C45.5809 24.3225 40.7875 25.7468 36.4112 28.5212C32.8333 30.79 30.0065 33.779 28.0333 37.5279C25.959 41.4676 25.0137 45.6706 25.1462 50.1182C25.2874 54.8095 26.5788 59.1047 29.3936 62.9861Z" fill="#00046A"/>
<path d="M39.1842 29.9083C41.793 28.0098 45.5056 28.5725 47.3698 31.1485C49.2909 33.8029 48.704 37.5096 46.0633 39.4092C43.4325 41.3016 39.7722 40.7079 37.848 38.0766C35.9678 35.5075 36.5738 31.8079 39.1842 29.9083ZM40.9904 35.7684C41.6256 36.6461 42.9012 36.8506 43.7845 36.2881C44.7445 35.6768 44.7392 34.1195 44.2171 33.4362C43.5608 32.5762 42.3505 32.3778 41.4578 33.0239C40.5636 33.6711 40.356 34.8902 40.9904 35.7684Z" fill="#00046A"/>
<path d="M31.2077 42.141C33.9166 40.1116 37.6361 40.9831 39.459 43.4846C41.3214 46.0421 40.7038 49.7258 38.1155 51.6187C35.5271 53.5116 31.7494 52.9509 29.9246 50.3648C28.1251 47.815 28.4728 44.088 31.2077 42.141ZM35.8111 48.501C36.7182 47.8538 36.9393 46.6469 36.3121 45.7657C35.6884 44.8878 34.4564 44.6901 33.5561 45.3242C32.6689 45.9489 32.4453 47.2006 33.0647 48.0711C33.6944 48.954 34.9094 49.1444 35.8111 48.501Z" fill="#00046A"/>
<path d="M56.5925 67.2717C53.9613 69.1876 50.3112 68.6306 48.4097 66.0224C46.4858 63.3851 47.0573 59.728 49.694 57.7988C52.3147 55.8812 56.0118 56.4644 57.919 59.0964C59.8129 61.7102 59.2214 65.3574 56.5925 67.2717ZM54.7773 61.396C54.1113 60.4662 52.9158 60.2512 51.9982 60.8968C51.0607 61.5569 50.8639 62.7844 51.5444 63.7245C52.184 64.6083 53.3979 64.8099 54.2982 64.1839C55.2127 63.5486 55.4261 62.3021 54.7773 61.396Z" fill="#00046A"/>
<path d="M42.4824 64.8716C39.8696 66.7823 36.1788 66.2352 34.2981 63.6573C32.4309 61.0997 33.0465 57.3536 35.6426 55.4794C38.2379 53.6058 41.9222 54.16 43.7952 56.7064C45.6887 59.2809 45.0978 62.958 42.4824 64.8716ZM37.9105 58.6258C37.0155 59.2783 36.8116 60.4912 37.4506 61.3662C38.0841 62.2335 39.3306 62.4172 40.2115 61.7727C41.0956 61.1259 41.2988 59.8879 40.6636 59.0183C40.0244 58.1447 38.8087 57.9711 37.9105 58.6258Z" fill="#00046A"/>
</svg>
