<svg width="96" height="96" viewBox="0 0 96 96" fill="none" xmlns="http://www.w3.org/2000/svg">
<rect width="96" height="96" rx="48" fill="#BEF7C4"/>
<path d="M21.0019 36.3275C21.2436 35.6364 21.7503 35.2763 22.4298 35.0317C30.6009 32.0876 38.7663 29.1271 46.9287 26.1597C47.5305 25.9413 48.0857 25.9501 48.6817 26.1665C56.8616 29.1368 65.0463 32.0973 73.2281 35.0618C74.3075 35.453 74.7676 36.1975 74.5084 37.1109C74.3502 37.669 73.9707 38.0146 73.4417 38.2077C72.6777 38.4883 71.9138 38.7707 71.1421 39.028C70.8626 39.1211 70.7655 39.257 70.7665 39.5589C70.7772 44.1308 70.7704 48.7036 70.7859 53.2755C70.7869 53.4891 70.9111 53.7521 71.0635 53.9084C72.3021 55.1761 73.563 56.4215 74.8142 57.6766C75.6703 58.5366 75.6791 59.416 74.8297 60.2721C73.594 61.5175 72.3564 62.7619 71.1033 63.9898C70.8519 64.2354 70.7607 64.4849 70.7665 64.8265C70.7859 65.8011 70.7801 66.7757 70.7713 67.7502C70.7626 68.7393 70.0948 69.4499 69.1843 69.4547C68.2738 69.4596 67.5924 68.7481 67.5846 67.7667C67.5768 66.7562 67.6001 65.7458 67.5691 64.7363C67.5623 64.5033 67.4477 64.2199 67.2856 64.0529C66.0616 62.7959 64.8133 61.5631 63.5747 60.3207C62.6633 59.4063 62.6584 58.5589 63.5631 57.6504C64.8007 56.4069 66.048 55.1732 67.275 53.9191C67.4293 53.7618 67.5681 53.5046 67.5691 53.294C67.5865 49.0939 67.5817 44.8937 67.5807 40.6936C67.5807 40.5937 67.5642 40.4937 67.5506 40.3335C66.315 40.7781 65.1152 41.1935 63.9339 41.6546C63.8019 41.706 63.7038 42.0186 63.7038 42.2098C63.6893 45.3286 63.6689 48.4484 63.7097 51.5671C63.7213 52.4805 63.4243 53.1619 62.7594 53.7599C61.0063 55.3353 58.934 56.2953 56.7063 56.9563C52.8517 58.1007 48.9001 58.2861 44.9164 58.0716C42.0918 57.9192 39.3224 57.4562 36.6735 56.4205C35.0282 55.7769 33.5071 54.9295 32.2093 53.7055C31.591 53.1222 31.3066 52.4611 31.3163 51.5895C31.3532 48.4357 31.3231 45.2801 31.3406 42.1264C31.3425 41.7187 31.2096 41.5507 30.8329 41.4139C28.0558 40.4053 25.2943 39.356 22.5152 38.3543C21.828 38.1068 21.2854 37.7593 21 37.0711C21.0019 36.8236 21.0019 36.5751 21.0019 36.3275ZM27.2725 36.6857C27.5045 36.7789 27.6501 36.841 27.7986 36.8954C34.1847 39.2609 40.5727 41.6235 46.9558 43.9988C47.3111 44.1308 47.6101 44.1327 47.9653 44.0046C53.6535 41.9429 59.3465 39.8938 65.0376 37.8408C66.0742 37.4671 67.1119 37.0934 68.2398 36.6867C68.0185 36.5877 67.8962 36.5226 67.7671 36.4761C61.2461 34.1154 54.7261 31.7528 48.1993 29.4086C47.9459 29.3173 47.6013 29.3309 47.3451 29.4222C41.8161 31.4053 36.2939 33.4058 30.7718 35.4054C29.6293 35.8199 28.4888 36.2402 27.2725 36.6857ZM34.57 42.8116C34.5477 42.9145 34.5283 42.9631 34.5283 43.0116C34.5254 45.7402 34.5176 48.4697 34.539 51.1983C34.5409 51.4021 34.7069 51.6555 34.8729 51.7982C35.8397 52.632 36.9734 53.1785 38.178 53.5599C43.6992 55.3062 49.2855 55.3916 54.9066 54.12C56.7839 53.6958 58.5583 53.0008 60.1143 51.8224C60.39 51.6137 60.5162 51.3866 60.5142 51.0245C60.4977 48.4901 60.5064 45.9566 60.5045 43.4222C60.5045 43.2659 60.488 43.1096 60.4764 42.8903C60.2502 42.9689 60.0706 43.031 59.892 43.0951C56.0646 44.4734 52.2344 45.845 48.4128 47.2389C47.7431 47.4835 47.1364 47.4786 46.4637 47.2234C43.4711 46.0867 40.463 44.9898 37.4607 43.8784C36.5017 43.5241 35.5436 43.1708 34.57 42.8116ZM69.1115 61.238C69.889 60.4575 70.6781 59.6664 71.3848 58.9578C70.6626 58.2337 69.8812 57.4514 69.1726 56.7399C68.4301 57.4766 67.6458 58.2561 66.8857 59.0093C67.6225 59.748 68.3951 60.5206 69.1115 61.238Z" fill="#00046A"/>
</svg>
