<svg width="96" height="96" viewBox="0 0 96 96" fill="none" xmlns="http://www.w3.org/2000/svg">
<path d="M0 48C0 21.4903 21.4903 0 48 0V0C74.5097 0 96 21.4903 96 48V48C96 74.5097 74.5097 96 48 96V96C21.4903 96 0 74.5097 0 48V48Z" fill="#FDD6D6"/>
<path d="M46.6781 71.9607C45.7841 71.8416 44.8865 71.7465 43.997 71.599C39.1786 70.801 35.0294 68.6726 31.44 65.3694C30.5629 64.5625 30.2332 63.7111 30.3114 62.5372C30.7593 55.8002 33.8883 50.7791 39.7927 47.4946C39.8735 47.4493 39.9526 47.4004 40.0833 47.324C39.9855 47.1578 39.8957 47.0014 39.8024 46.8476C37.5914 43.2085 38.1504 38.367 41.1497 35.3588C41.3523 35.1553 41.6838 34.95 41.9424 34.9652C42.2374 34.982 42.5822 35.1873 42.7893 35.4157C43.0461 35.6992 42.9937 36.092 42.7822 36.4217C42.6906 36.5648 42.5609 36.683 42.4436 36.8083C40.317 39.0975 39.8033 42.3971 41.1372 45.2107C42.4747 48.0322 45.4046 49.7589 48.5061 49.5545C52.3452 49.3013 55.4831 46.0514 55.5755 42.2336C55.6706 38.2764 52.7966 34.9225 48.9158 34.4648C48.6217 34.4302 48.3257 34.4115 48.0298 34.3937C47.4237 34.3582 47.038 33.9929 47.03 33.4384C47.022 32.8688 47.4362 32.3898 48.0413 32.4591C49.1042 32.5817 50.2026 32.6759 51.2015 33.0252C56.9094 35.0185 59.276 41.8088 56.1114 46.9658C56.0474 47.0707 55.9879 47.1782 55.8999 47.332C56.0723 47.4279 56.2278 47.5177 56.386 47.6039C59.8723 49.5092 62.4432 52.2694 64.1015 55.8792C64.3521 56.4249 64.273 56.8897 63.8935 57.1936C63.5354 57.4806 63.02 57.502 62.6894 57.1892C62.5037 57.0132 62.3668 56.7706 62.2548 56.536C60.7112 53.2976 58.3429 50.8582 55.1836 49.1653C54.7535 48.9351 54.4931 48.9405 54.0986 49.2746C50.4941 52.3299 45.2713 52.2597 41.7033 49.1289C41.4785 48.9316 41.3132 48.9023 41.0528 49.0382C36.1749 51.5816 33.2769 55.5504 32.4255 60.9962C32.3722 61.3348 32.39 61.6876 32.3109 62.0182C32.0683 63.0375 32.4797 63.7147 33.2484 64.3839C36.613 67.3138 40.4734 69.1481 44.883 69.7835C56.3949 71.4435 67.1825 63.8498 69.5615 52.4374C71.9849 40.8091 64.7129 29.3301 53.1672 26.5556C40.7755 23.5777 28.4994 31.6211 26.2795 44.1923C25.6298 47.8741 25.9302 51.499 27.1184 55.0474C27.1681 55.195 27.2321 55.3398 27.2677 55.49C27.4054 56.0641 27.1406 56.5502 26.6118 56.7119C26.1106 56.8657 25.5978 56.6275 25.4219 56.0819C25.1117 55.1185 24.7927 54.1508 24.5839 53.1626C24.3546 52.0819 24.2471 50.9764 24.0835 49.8816C24.0631 49.7438 24.0284 49.6088 24 49.4728C24 48.473 24 47.4733 24 46.4744C24.0275 46.3384 24.0613 46.2025 24.0826 46.0656C24.287 44.7886 24.4026 43.4902 24.7056 42.2372C27.1432 32.1294 35.9536 24.7498 46.3351 24.0584C50.8691 23.7563 55.1623 24.6219 59.172 26.7493C70.7221 32.8777 75.3024 46.8263 69.4655 58.5862C65.7749 66.0217 59.6466 70.3602 51.4299 71.6941C50.7243 71.8088 50.0115 71.8727 49.3015 71.9598C48.427 71.9607 47.5526 71.9607 46.6781 71.9607Z" fill="#00046A"/>
</svg>
